<?xml version="1.0" encoding="UTF-8"?>
<svg width="40px" height="24px" viewBox="0 0 40 24" version="1.1" xmlns="http://www.w3.org/2000/svg" xmlns:xlink="http://www.w3.org/1999/xlink">
    <!-- Generator: Sketch 50.2 (55047) - http://www.bohemiancoding.com/sketch -->
    <title>google-pay</title>
    <desc>Created with Sketch.</desc>
    <defs>
        <rect id="path-1" x="0" y="0" width="40" height="24" rx="1.6"></rect>
    </defs>
    <g id="Page-1" stroke="none" stroke-width="1" fill="none" fill-rule="evenodd">
        <g id="google-pay">
            <g id="a-link">
                <g id="a-Clipped">
                    <mask id="mask-2" fill="white">
                        <use xlink:href="#path-1"></use>
                    </mask>
                    <g id="a"></g>
                    <rect id="a" fill="#5F6368" fill-rule="nonzero" mask="url(#mask-2)" x="0" y="0" width="40" height="24" rx="1.6"></rect>
                </g>
            </g>
            <g id="google-pay-seeklogo.com" transform="translate(5.000000, 6.000000)" fill-rule="nonzero">
                <g id="Shape">
                    <path d="M14.1917808,5.86971429 L14.1917808,9.35314286 L13.0890411,9.35314286 L13.0890411,0.754285714 L16.0136986,0.754285714 C16.7191781,0.740571429 17.3972603,1.008 17.9109589,1.50171429 C18.4246575,1.96114286 18.7123288,2.62628571 18.6986301,3.312 C18.7123288,4.00457143 18.4246575,4.66971429 17.9109589,5.136 C17.3972603,5.62285714 16.7671233,5.86971429 16.0205479,5.86971429 L14.1917808,5.86971429 Z M14.1917808,1.81028571 L14.1917808,4.81371429 L16.0410959,4.81371429 C16.4520548,4.82742857 16.8493151,4.66285714 17.130137,4.368 C17.7123288,3.80571429 17.7191781,2.88 17.1575342,2.29714286 L17.130137,2.26971429 C16.8493151,1.968 16.4520548,1.80342857 16.0410959,1.81714286 L14.1917808,1.81028571 Z M21.239726,3.27771429 C22.0547945,3.27771429 22.6986301,3.49714286 23.1712329,3.92914286 C23.6438356,4.368 23.8767123,4.96457143 23.8767123,5.72571429 L23.8767123,9.34628571 L22.8219178,9.34628571 L22.8219178,8.53028571 L22.7739726,8.53028571 C22.3150685,9.20228571 21.7123288,9.53828571 20.9520548,9.53828571 C20.3082192,9.53828571 19.760274,9.34628571 19.3287671,8.96228571 C18.9041096,8.60571429 18.6643836,8.07771429 18.6780822,7.52228571 C18.6780822,6.912 18.9109589,6.432 19.369863,6.06857143 C19.8287671,5.70514286 20.4452055,5.52685714 21.2123288,5.52685714 C21.869863,5.52685714 22.4041096,5.65028571 22.8287671,5.88342857 L22.8287671,5.62971429 C22.8287671,5.25257143 22.6643836,4.896 22.3767123,4.656 C22.0821918,4.39542857 21.7054795,4.25142857 21.3150685,4.25142857 C20.6986301,4.25142857 20.2123288,4.512 19.8493151,5.03314286 L18.8767123,4.42285714 C19.4041096,3.66171429 20.1917808,3.27771429 21.239726,3.27771429 Z M19.8150685,7.54971429 C19.8150685,7.83771429 19.9520548,8.10514286 20.1780822,8.26971429 C20.4246575,8.46171429 20.7260274,8.56457143 21.0342466,8.55771429 C21.5,8.55771429 21.9452055,8.37257143 22.2739726,8.04342857 C22.6369863,7.70057143 22.8219178,7.296 22.8219178,6.82971429 C22.4794521,6.55542857 22,6.41828571 21.3835616,6.41828571 C20.9383562,6.41828571 20.5616438,6.528 20.260274,6.74057143 C19.9657534,6.96 19.8150685,7.22742857 19.8150685,7.54971429 Z M29.9315068,3.46971429 L26.2465753,11.9451429 L25.109589,11.9451429 L26.4794521,8.98285714 L24.0547945,3.47657143 L25.2534247,3.47657143 L27,7.70057143 L27.0273973,7.70057143 L28.7328767,3.47657143 L29.9315068,3.46971429 Z" fill="#FFFFFF"></path>
                    <path d="M9.73287671,5.11542857 C9.73287671,4.77942857 9.70547945,4.44342857 9.65068493,4.11428571 L5,4.11428571 L5,6.01371429 L7.66438356,6.01371429 C7.55479452,6.624 7.19863014,7.17257143 6.67808219,7.51542857 L6.67808219,8.74971429 L8.26712329,8.74971429 C9.19863014,7.89257143 9.73287671,6.624 9.73287671,5.11542857 Z" fill="#4285F4"></path>
                    <path d="M5,9.94285714 C6.32876712,9.94285714 7.45205479,9.504 8.26712329,8.74971429 L6.67808219,7.51542857 C6.23287671,7.81714286 5.66438356,7.98857143 5,7.98857143 C3.71232877,7.98857143 2.62328767,7.11771429 2.23287671,5.952 L0.595890411,5.952 L0.595890411,7.22742857 C1.43150685,8.88685714 3.1369863,9.94285714 5,9.94285714 Z" fill="#34A853"></path>
                    <path d="M2.23287671,5.952 C2.02739726,5.34171429 2.02739726,4.67657143 2.23287671,4.05942857 L2.23287671,2.79085714 L0.595890411,2.79085714 C-0.109581959,4.18297118 -0.109581959,5.82845739 0.595890411,7.22057143 L2.23287671,5.952 Z" fill="#FBBC04"></path>
                    <path d="M5,2.02285714 C5.70547945,2.00914286 6.38356164,2.27657143 6.89041096,2.76342857 L8.29452055,1.35771429 C7.40410959,0.514285714 6.2260274,0.0548571429 5,0.0685714286 C3.1369863,0.0685714286 1.43150685,1.12457143 0.595890411,2.79085714 L2.23287671,4.06628571 C2.62328767,2.89371429 3.71232877,2.02285714 5,2.02285714 Z" fill="#EA4335"></path>
                </g>
            </g>
        </g>
    </g>
</svg>
