<svg width="40" height="24" viewBox="0 0 40 24" xmlns="http://www.w3.org/2000/svg"><title>MasterCard-dark</title><g fill="none"><rect fill="#006" width="40" height="24" rx="1.6"/><path d="M22.451 12.194a7.806 7.806 0 1 1-15.612 0 7.806 7.806 0 0 1 15.612 0" fill="#c00"/><path d="M25.126 4.388a7.778 7.778 0 0 0-6.029 2.847h1.577c.215.262.414.538.595.827h-2.767a7.753 7.753 0 0 0-.45.827h3.667c.125.268.236.543.331.826h-4.328a7.86 7.86 0 0 0-.227.826h4.781a7.897 7.897 0 0 1-.227 4.133h-4.328c.095.283.205.559.33.827h3.667a7.952 7.952 0 0 1-.45.827h-2.767c.18.288.379.564.595.826h1.577a7.801 7.801 0 0 1-.789.827 7.806 7.806 0 1 0 5.24-13.592" fill="#f90"/><path d="M12.823 13.049l-.189-.013c-.48 0-.723.165-.723.49 0 .2.119.328.304.328.345 0 .594-.329.609-.805zm.616 1.435h-.702l.016-.334c-.214.263-.5.389-.888.389-.459 0-.774-.358-.774-.879 0-.784.548-1.241 1.488-1.241l.346.025.033-.209c0-.213-.148-.293-.543-.293a2.831 2.831 0 0 0-.897.145l.118-.724c.422-.124.701-.17 1.014-.17.728 0 1.113.327 1.112.944.001.166-.026.369-.069.638a52.06 52.06 0 0 0-.253 1.71zm-2.703 0h-.848l.486-3.044-1.084 3.044h-.577l-.071-3.027-.51 3.027h-.793l.663-3.959h1.219l.074 2.216.743-2.216h1.355l-.655 3.959m15.435-1.435l-.189-.013c-.481 0-.723.165-.723.49 0 .2.118.328.304.328.345 0 .594-.329.608-.805zm.617 1.435h-.702l.016-.334c-.214.263-.5.389-.888.389-.46 0-.774-.358-.774-.879 0-.784.548-1.241 1.488-1.241l.345.025.033-.209c0-.213-.148-.293-.543-.293a2.837 2.837 0 0 0-.897.145l.118-.724c.422-.124.701-.17 1.014-.17.728 0 1.113.327 1.113.944.001.166-.026.369-.069.638-.073.466-.232 1.466-.253 1.71zm-9.585-.049a1.94 1.94 0 0 1-.609.105c-.433 0-.67-.249-.67-.707-.006-.142.062-.517.116-.858l.368-2.197h.842l-.098.487h.509l-.115.774h-.511c-.098.612-.237 1.375-.239 1.476 0 .166.089.239.29.239l.228-.03-.112.713m2.584-.028a2.875 2.875 0 0 1-.864.131c-.943-.001-1.435-.493-1.435-1.437 0-1.101.625-1.911 1.474-1.911.694 0 1.138.454 1.138 1.165 0 .236-.03.467-.104.792H18.32c-.057.467.242.662.733.662.301 0 .573-.062.876-.202l-.14.801zm-.473-1.909c.005-.067.089-.575-.392-.575-.268 0-.46.205-.538.575h.93zm-5.368-.218c0 .407.197.688.645.899.343.161.396.209.396.355 0 .2-.151.291-.487.291-.253 0-.488-.04-.759-.127l-.116.744c.193.042.364.081.882.095.894 0 1.307-.34 1.307-1.076 0-.442-.173-.702-.597-.897-.355-.163-.396-.199-.396-.35 0-.174.141-.263.415-.263.166 0 .394.018.609.048l.121-.747a5.703 5.703 0 0 0-.746-.063c-.948 0-1.276.495-1.273 1.09m9.962-1.004c.235 0 .455.061.757.214l.139-.859c-.125-.049-.561-.335-.931-.335-.567 0-1.047.282-1.384.746-.492-.163-.694.166-.942.494l-.22.051.027-.324h-.779c-.106.997-.294 2.006-.442 3.003l-.039.217h.848c.141-.92.219-1.508.266-1.907l.319-.177c.048-.178.197-.237.496-.23-.039.21-.06.431-.06.66 0 1.054.569 1.71 1.481 1.71.235 0 .437-.031.749-.116l.149-.902c-.281.138-.511.203-.72.203-.493 0-.791-.364-.791-.965 0-.872.443-1.483 1.076-1.483m7.175-.753l-.188 1.144c-.231-.305-.48-.526-.809-.526-.428 0-.817.324-1.072.802-.355-.074-.722-.199-.722-.199v.003l.037-.485h-.779c-.106.997-.294 2.006-.442 3.003l-.039.217h.848a86.34 86.34 0 0 0 .266-1.85c.29-.262.435-.49.727-.475-.13.314-.205.675-.205 1.045 0 .805.407 1.336 1.023 1.336.311 0 .549-.107.781-.355l-.04.3h.802l.646-3.959h-.836zm-1.06 3.216c-.288 0-.434-.214-.434-.635 0-.633.273-1.082.657-1.082.291 0 .449.222.449.631 0 .638-.278 1.086-.672 1.086z" fill="#006"/><path fill="#fff" d="M10.98 14.249h-.847l.486-3.044-1.084 3.044h-.578l-.071-3.026-.51 3.026h-.793l.663-3.959h1.219l.034 2.451.822-2.451h1.316l-.656 3.959m2.086-1.435l-.189-.013c-.48 0-.723.165-.723.49 0 .2.119.328.304.328.345 0 .594-.329.609-.805zm.616 1.434h-.702l.016-.333c-.214.263-.5.389-.888.389-.459 0-.774-.359-.774-.88 0-.784.548-1.241 1.488-1.241l.345.025.033-.209c0-.213-.148-.292-.543-.292a2.81 2.81 0 0 0-.897.144l.118-.724c.422-.124.701-.171 1.014-.171.728 0 1.113.327 1.112.944.001.165-.026.37-.069.638-.074.466-.232 1.467-.253 1.71zm11.366-3.852l-.139.859c-.303-.152-.522-.214-.757-.214-.633 0-1.077.611-1.077 1.484 0 .601.298.964.791.964.209 0 .439-.065.72-.203l-.149.902a2.645 2.645 0 0 1-.749.116c-.912 0-1.481-.656-1.481-1.709 0-1.415.786-2.405 1.909-2.405.37 0 .807.157.931.206m1.368 2.418l-.189-.013c-.48 0-.723.165-.723.49 0 .2.119.328.304.328.345 0 .594-.329.608-.805zm.617 1.434h-.702l.016-.333c-.214.263-.5.389-.888.389-.46 0-.774-.359-.774-.88 0-.784.547-1.241 1.488-1.241l.345.025.033-.209c0-.213-.147-.292-.543-.292a2.82 2.82 0 0 0-.897.144l.118-.724c.422-.124.701-.171 1.014-.171.728 0 1.113.327 1.112.944a4.12 4.12 0 0 1-.068.638c-.073.466-.231 1.467-.253 1.71zm-9.584-.048a1.94 1.94 0 0 1-.609.105c-.433 0-.67-.249-.67-.707-.006-.143.063-.517.116-.858l.367-2.197h.842l-.099.487h.432l-.115.774h-.434c-.098.613-.237 1.375-.239 1.476 0 .167.089.239.29.239l.229-.03-.113.713m2.586-.028c-.29.089-.569.131-.865.13-.943-.001-1.434-.493-1.434-1.436 0-1.101.625-1.911 1.474-1.911.695 0 1.139.454 1.139 1.166 0 .236-.031.466-.104.792h-1.678c-.057.467.242.662.732.662.301 0 .573-.062.876-.203l-.14.801zm-.474-1.909c.005-.067.089-.575-.392-.575-.268 0-.46.205-.538.575h.93zm-5.367-.218c0 .408.198.688.646.899.343.161.396.209.396.355 0 .201-.151.291-.487.291-.253 0-.488-.039-.759-.127l-.116.743c.192.042.364.081.882.096.894 0 1.307-.34 1.307-1.076 0-.443-.173-.702-.597-.897-.355-.163-.396-.2-.396-.35 0-.174.141-.264.415-.264.166 0 .393.019.609.049l.121-.747a5.703 5.703 0 0 0-.746-.063c-.948 0-1.276.495-1.273 1.09m17.326 2.203h-.802l.04-.3c-.233.248-.471.356-.781.356-.616 0-1.023-.531-1.023-1.336 0-1.071.632-1.974 1.379-1.974.329 0 .577.134.809.439l.188-1.144h.836l-.645 3.959zm-1.25-.744c.395 0 .672-.447.672-1.085 0-.409-.158-.631-.449-.631-.384 0-.657.449-.657 1.082 0 .421.146.634.434.634zm-2.472-2.476c-.106.997-.294 2.006-.442 3.003l-.039.216h.848c.303-1.969.376-2.353.852-2.305.076-.403.217-.756.322-.934-.355-.074-.553.127-.813.508.021-.165.058-.325.051-.488h-.779m-6.976 0c-.106.997-.295 2.006-.442 3.003l-.038.216h.848c.303-1.969.376-2.353.851-2.305.076-.403.217-.756.322-.934-.355-.074-.553.127-.812.508.02-.165.058-.325.051-.488h-.778"/></g></svg>
