<svg width="40" height="24" viewBox="0 0 40 24" xmlns="http://www.w3.org/2000/svg"><title>Visa-dark</title><g fill="none"><rect fill="#26337A" width="40" height="24" rx="1.6"/><path fill="#fff" d="M16.596 15.819l1.23-7.63h1.966l-1.23 7.63h-1.966m9.097-7.443c-.389-.153-1-.32-1.762-.32-1.944 0-3.312 1.035-3.323 2.518-.012 1.097.976 1.708 1.722 2.073.766.374 1.023.613 1.02.947-.005.511-.611.745-1.177.745-.787 0-1.205-.115-1.852-.4l-.253-.121-.275 1.708c.458.213 1.308.397 2.19.407 2.066 0 3.408-1.023 3.424-2.606.007-.87-.517-1.529-1.651-2.073-.687-.354-1.109-.588-1.104-.946 0-.317.356-.657 1.126-.657a3.45 3.45 0 0 1 1.471.293l.177.087.266-1.654m2.619 4.737l.783-2.133.261-.728.133.658.455 2.202h-1.632zm2.425-4.917h-1.519c-.471 0-.824.135-1.03.632l-2.92 6.992h2.065l.413-1.147 2.518.004.239 1.143h1.825l-1.591-7.625zm-15.789-.002l-1.924 5.202-.206-1.057c-.359-1.218-1.475-2.539-2.723-3.2l1.76 6.673 2.081-.001 3.096-7.615h-2.083"/><path d="M11.236 8.19h-3.17l-.026.158c2.467.632 4.099 2.158 4.777 3.991l-.689-3.506c-.119-.483-.464-.627-.891-.644" fill="#ED982D"/></g></svg>
