<svg width="40" height="24" viewBox="0 0 40 24" fill="none" xmlns="http://www.w3.org/2000/svg">
<mask id="mask0" mask-type="alpha" maskUnits="userSpaceOnUse" x="0" y="0" width="40" height="24">
<path d="M38.4 0H1.6C0.716344 0 0 0.716344 0 1.6V22.4C0 23.2837 0.716344 24 1.6 24H38.4C39.2837 24 40 23.2837 40 22.4V1.6C40 0.716344 39.2837 0 38.4 0Z" fill="white"/>
</mask>
<g mask="url(#mask0)">
<path d="M38.4 0H1.6C0.716344 0 0 0.716344 0 1.6V22.4C0 23.2837 0.716344 24 1.6 24H38.4C39.2837 24 40 23.2837 40 22.4V1.6C40 0.716344 39.2837 0 38.4 0Z" fill="white" stroke="black"/>
</g>
<path fill-rule="evenodd" clip-rule="evenodd" d="M20.1215 13.023C20.8231 12.3212 20.8231 11.1836 20.1215 10.4818C19.783 10.1482 19.3264 9.9619 18.8512 9.96333C18.5807 9.96333 18.2725 10.0012 18.0013 10.2639L17.9642 10.3017V10.0313H17.0533V15.4739L17.9642 15.1866V13.1737L18.0013 13.2038C18.2309 13.421 18.5351 13.5419 18.8512 13.5415C19.327 13.5457 19.7845 13.359 20.1215 13.023ZM18.8511 10.8658C19.341 10.8658 19.7381 11.2629 19.7381 11.7528C19.7381 12.2432 19.3325 12.6636 18.8511 12.6636C18.3698 12.6636 17.9641 12.2432 17.9641 11.7528C17.9641 11.2629 18.3612 10.8658 18.8511 10.8658Z" fill="#373737"/>
<path fill-rule="evenodd" clip-rule="evenodd" d="M21.4975 10.4819C20.7959 11.1837 20.7959 12.3213 21.4975 13.0231C21.8361 13.3565 22.2926 13.5428 22.7678 13.5416C23.0382 13.5416 23.3472 13.5044 23.6177 13.241L23.6548 13.2039V13.4743H24.5656V10.0313H23.6548V10.3319L23.6177 10.3018C23.3883 10.0841 23.084 9.96291 22.7678 9.96338C22.2921 9.95933 21.8345 10.1461 21.4975 10.4819ZM22.7713 12.6398C22.2814 12.6398 21.8843 12.2427 21.8843 11.7528C21.8843 11.2623 22.2899 10.8419 22.7713 10.8419C23.2526 10.8419 23.6583 11.2623 23.6583 11.7528C23.6583 12.2427 23.2612 12.6398 22.7713 12.6398Z" fill="#373737"/>
<path fill-rule="evenodd" clip-rule="evenodd" d="M21.4975 10.4819C20.7959 11.1837 20.7959 12.3213 21.4975 13.0231C21.8361 13.3565 22.2926 13.5428 22.7678 13.5416C23.0382 13.5416 23.3472 13.5044 23.6177 13.241L23.6548 13.2039V13.4743H24.5656V10.0313H23.6548V10.3319L23.6177 10.3018C23.3883 10.0841 23.084 9.96291 22.7678 9.96338C22.2921 9.95933 21.8345 10.1461 21.4975 10.4819ZM22.7713 12.6398C22.2814 12.6398 21.8843 12.2427 21.8843 11.7528C21.8843 11.2623 22.2899 10.8419 22.7713 10.8419C23.2526 10.8419 23.6583 11.2623 23.6583 11.7528C23.6583 12.2427 23.2612 12.6398 22.7713 12.6398Z" fill="#373737"/>
<path d="M25.4743 15.4739L26.294 13.482L24.918 10.0313H25.9255L26.7824 12.1732L27.6547 10.0313H28.6545L26.4594 15.4739H25.4743V15.4739Z" fill="#373737"/>
<path d="M26.294 13.482L24.918 10.0313H25.9255L26.7824 12.1732L27.6547 10.0313H28.6545L26.4594 15.4739H25.4743L26.294 13.482Z" fill="#373737"/>
<path fill-rule="evenodd" clip-rule="evenodd" d="M2 11.7535C2 12.7209 2.78422 13.5051 3.75161 13.5051V13.5072C4.22735 13.5072 4.62811 13.2543 4.88035 13.0441L4.95041 12.9831V13.4322H5.51092V10.0776H4.95041V10.526L4.88035 10.465C4.62811 10.2541 4.22735 10.0019 3.75161 10.0019C2.78422 10.0019 2 10.7861 2 11.7535ZM2.62746 11.2874C2.81724 10.8352 3.2612 10.5422 3.75161 10.5456C4.41599 10.5491 4.95284 11.0885 4.95322 11.7528C4.95434 12.2433 4.65933 12.6859 4.20624 12.8735C3.75315 13.0612 3.23159 12.9568 2.88561 12.6092C2.53964 12.2616 2.43769 11.7396 2.62746 11.2874Z" fill="#373737"/>
<path d="M6.52127 13.4302V10.6031H6.0105V10.0755H6.52127V9.08406C6.52009 8.79367 6.63594 8.51505 6.84266 8.31111C7.04937 8.10716 7.32953 7.99508 7.61988 8.00017H8.32052L8.18039 8.52845H7.63529C7.32792 8.54038 7.08388 8.7912 7.08038 9.09878V10.0755H8.13975V10.6031H7.07968V13.4302H6.52127Z" fill="#373737"/>
<path d="M10.2432 13.4302C9.63702 13.429 9.14603 12.9377 9.14526 12.3316V10.6031H8.63379V10.0755H9.14526V8.00018H9.70577V10.0755H10.7658V10.6031H9.70297V12.3161C9.70297 12.623 9.96781 12.9019 10.2586 12.9019H10.803L10.9431 13.4302H10.2432Z" fill="#373737"/>
<path fill-rule="evenodd" clip-rule="evenodd" d="M11.5133 12.9768C11.7985 13.3032 12.2113 13.4898 12.6448 13.4883C12.9559 13.4792 13.2599 13.3941 13.5304 13.2403C13.6823 13.1475 13.8209 13.0346 13.9424 12.9046L13.4772 12.6244C13.2432 12.836 12.9431 12.9598 12.628 12.9747C12.1102 12.967 11.6625 12.5172 11.5847 11.9237V11.8642H14.2486C14.2536 11.6976 14.2402 11.531 14.2087 11.3674C14.1454 11.0634 14 10.7825 13.7883 10.5554C13.4977 10.2344 13.0848 10.0513 12.6518 10.0513C12.2188 10.0513 11.806 10.2344 11.5154 10.5554C11.3065 10.7854 11.1616 11.0661 11.095 11.3695C11.0662 11.4998 11.0514 11.6327 11.0509 11.7661C11.0496 11.8178 11.0522 11.8696 11.0586 11.9209C11.0851 12.3145 11.2455 12.6871 11.5133 12.9768ZM11.6486 11.3345C11.8132 10.8749 12.214 10.5638 12.6449 10.5638L12.6456 10.5589C13.0849 10.5589 13.4856 10.8721 13.6398 11.3296L13.6797 11.4088H11.6114L11.643 11.3443L11.6486 11.3345Z" fill="#373737"/>
<path d="M14.7916 13.4302V10.0755H15.3521V10.4994L15.4299 10.4139C15.6275 10.196 16.209 10.018 16.5958 10.0012L16.4592 10.5617C15.8461 10.5793 15.3521 11.0571 15.3521 11.6428V13.433L14.7916 13.4302Z" fill="#373737"/>
<path d="M33.4715 10.9821L34.4482 10.4167C34.3403 10.2268 34.3669 10.2723 34.2688 10.0937C34.1708 9.915 34.2037 9.83022 34.4188 9.82812C35.0461 9.82391 35.6729 9.82391 36.2993 9.82812C36.4857 9.82812 36.5305 9.90869 36.4394 10.0726C36.1288 10.6182 35.8154 11.1617 35.4992 11.703C35.3983 11.8761 35.31 11.8754 35.2042 11.703C35.0984 11.5307 35.125 11.572 35.0087 11.3751L34.0348 11.9406C34.0528 11.9813 34.0741 12.0204 34.0986 12.0576C34.3403 12.4779 34.4489 12.6783 34.6969 13.0931C34.9926 13.5836 35.6113 13.6144 35.963 13.1632C36.0022 13.1126 36.038 13.0595 36.0702 13.0041C36.6615 11.9793 37.2519 10.954 37.8414 9.92831C37.9044 9.82472 37.9517 9.71231 37.9816 9.5948C38.0315 9.37553 37.9788 9.14544 37.8382 8.96985C37.6977 8.79427 37.4848 8.69236 37.2599 8.69307C35.9917 8.68677 34.7243 8.68537 33.4568 8.69658C33.1939 8.6927 32.9485 8.82756 32.8108 9.0515C32.6731 9.27544 32.6635 9.55536 32.7856 9.78818C32.8683 9.95353 32.9677 10.1105 33.0609 10.2709C33.2354 10.5722 33.2816 10.6521 33.4743 10.9835" fill="#2778B3"/>
<path d="M30.6528 14.1476C30.6528 13.7672 30.6528 13.0266 30.6528 13.0266C30.6528 13.0266 30.4966 13.0266 30.2864 13.0266C30.0762 13.0266 30.0271 12.9509 30.1329 12.7653C30.4422 12.2258 30.7542 11.6886 31.069 11.1538C31.1622 10.994 31.2456 10.98 31.3493 11.1573C31.661 11.6961 31.9728 12.2349 32.2797 12.7758C32.3778 12.9488 32.3337 13.0238 32.1361 13.0301H31.757V14.1581H33.0756C33.6446 14.1497 33.9788 13.6334 33.7637 13.1072C33.7397 13.0482 33.7119 12.9908 33.6803 12.9355C33.096 11.9177 32.5105 10.9004 31.9238 9.88352C31.8663 9.7782 31.7933 9.68208 31.7073 9.59836C31.5454 9.44451 31.3221 9.37304 31.101 9.4043C30.8799 9.43556 30.6851 9.56612 30.5722 9.75881C29.9361 10.8439 29.3055 11.932 28.6805 13.0231C28.5453 13.2467 28.5382 13.525 28.6618 13.7552C28.7854 13.9854 29.0213 14.1333 29.2824 14.1441C29.4659 14.1553 30.2471 14.149 30.6507 14.149" fill="#074578"/>
</svg>
