<svg width="40" height="24" viewBox="0 0 40 24" xmlns="http://www.w3.org/2000/svg"><title>AmericanExpress-dark</title><g fill="none"><rect fill="#0072CE" width="40" height="24" rx="1.6"/><path d="M33.763 13.866H32.35c-.141 0-.235.005-.314.058-.082.052-.113.13-.113.233 0 .122.069.205.17.241.082.028.17.037.299.037l.42.011c.424.01.707.083.88.26l.072.08v-.921zm0 2.133c-.188.275-.555.414-1.052.414h-1.497v-.694h1.491c.148 0 .251-.019.314-.08a.285.285 0 0 0 .092-.211.266.266 0 0 0-.095-.214c-.056-.049-.138-.072-.273-.072-.728-.025-1.636.022-1.636-1.001 0-.469.299-.963 1.113-.963h1.545v-.644H32.33c-.433 0-.748.103-.97.264v-.264h-2.123c-.339 0-.738.084-.926.264v-.264h-3.79v.264c-.302-.217-.811-.264-1.046-.264h-2.5v.264c-.239-.23-.769-.264-1.093-.264h-2.798l-.64.691-.6-.691h-4.18v4.514h4.101l.66-.702.622.702 2.528.002v-1.062h.249c.335.005.731-.008 1.08-.159v1.218h2.085v-1.176h.101c.128 0 .141.005.141.133v1.043h6.334c.402 0 .823-.103 1.055-.289v.289h2.009c.418 0 .826-.058 1.137-.208v-.841zm-3.093-1.292c.151.156.232.352.232.685 0 .696-.436 1.021-1.218 1.021h-1.51v-.694h1.504c.147 0 .251-.019.317-.08a.288.288 0 0 0-.003-.425c-.059-.049-.141-.072-.276-.072-.725-.025-1.633.022-1.633-1.001 0-.469.296-.963 1.109-.963h1.555v.689h-1.422c-.141 0-.233.005-.311.058-.085.052-.116.13-.116.233 0 .122.072.205.17.241.082.028.17.037.302.037l.417.011c.421.01.71.083.886.26zm-6.997-.2c-.104.061-.232.067-.383.067h-.942v-.727h.955c.138 0 .276.003.37.058.1.052.161.153.161.291a.35.35 0 0 1-.161.311zm.468.403a.839.839 0 0 1 .38.272c.109.158.125.305.128.59v.641h-.778v-.405c0-.195.019-.483-.125-.633-.113-.116-.286-.144-.569-.144h-.829v1.182h-.779v-3.235h1.79c.393 0 .678.017.933.153.245.147.399.349.399.718 0 .516-.346.78-.55.861zm.98-1.732h2.588v.669h-1.816v.588h1.771v.66h-1.771v.644l1.816.003v.671h-2.588v-3.235zm-5.232 1.493h-1.002v-.824h1.011c.28 0 .474.114.474.397 0 .28-.185.427-.483.427zm-1.774 1.448l-1.191-1.318 1.191-1.276v2.594zm-3.074-.38h-1.906v-.644h1.702v-.66h-1.702v-.588h1.944l.848.943-.886.949zm6.165-1.495c0 .899-.673 1.084-1.35 1.084h-.968v1.085h-1.507l-.955-1.071-.992 1.071h-3.071v-3.235h3.119l.954 1.06.986-1.06H19.9c.615 0 1.307.17 1.307 1.066zM8.662 9.45l-.531-1.289-.528 1.289h1.058zm11.692-.513c-.107.064-.233.067-.384.067h-.942v-.718h.955c.135 0 .276.006.368.058.101.047.163.147.163.286 0 .141-.059.255-.16.307zm6.72.513l-.537-1.289-.534 1.289h1.07zm-12.526 1.396h-.795l-.003-2.533-1.124 2.533h-.681l-1.127-2.535v2.535H9.241l-.298-.721H7.329l-.301.721h-.842l1.389-3.234h1.152l1.319 3.062V7.612h1.266l1.015 2.194.932-2.194h1.291v3.234zm3.168 0h-2.59V7.612h2.59v.674h-1.815v.583h1.771v.663h-1.771v.646h1.815v.669zm3.652-2.363a.91.91 0 0 1-.546.862c.17.064.315.178.384.272.109.161.128.305.128.593v.635h-.782l-.003-.408c0-.195.019-.475-.122-.63-.113-.114-.286-.138-.565-.138h-.832v1.176h-.775V7.611h1.783c.396 0 .688.01.939.155.245.144.392.355.392.716zm1.241 2.363h-.791V7.612h.791v3.234zm9.179 0h-1.099l-1.47-2.428v2.428H27.64l-.302-.721h-1.611l-.293.721h-.907c-.377 0-.854-.083-1.124-.358-.273-.275-.414-.647-.414-1.235 0-.48.085-.918.418-1.265.251-.258.643-.377 1.178-.377h.751v.693h-.735c-.283 0-.443.042-.597.192-.132.136-.223.394-.223.733 0 .347.069.596.213.76.119.128.336.167.54.167h.348l1.093-2.544h1.162l1.313 3.059V7.612h1.181l1.363 2.253V7.612h.794v3.234zm-25.612.635h1.325l.299-.718h.669l.298.718h2.607v-.549l.233.552h1.353l.233-.56v.557h6.478l-.003-1.179h.125c.088.003.113.011.113.156v1.024h3.351v-.275c.27.144.691.275 1.244.275h1.41l.302-.718h.669l.295.718h2.716V10.8l.411.682h2.177V6.971h-2.154v.533l-.302-.533h-2.21v.533l-.277-.533h-2.986c-.5 0-.939.07-1.294.263v-.263h-2.06v.263c-.226-.2-.534-.263-.876-.263h-7.528l-.505 1.165-.519-1.165H9.399v.533l-.26-.533H7.117l-.939 2.145v2.366z" fill="#fff"/></g></svg>
