<?xml version="1.0" encoding="UTF-8"?>
<svg width="40px" height="24px" viewBox="0 0 40 24" version="1.1" xmlns="http://www.w3.org/2000/svg" xmlns:xlink="http://www.w3.org/1999/xlink">
    <!-- Generator: Sketch 50.2 (55047) - http://www.bohemiancoding.com/sketch -->
    <title>apple-pay</title>
    <desc>Created with Sketch.</desc>
    <defs>
        <rect id="path-1" x="0" y="0" width="40" height="24" rx="1.6"></rect>
    </defs>
    <g id="Page-1" stroke="none" stroke-width="1" fill="none" fill-rule="evenodd">
        <g id="apple-pay">
            <g id="a-link">
                <g id="a-Clipped">
                    <mask id="mask-2" fill="white">
                        <use xlink:href="#path-1"></use>
                    </mask>
                    <g id="a"></g>
                    <rect id="a" stroke="#000000" fill="#FFFFFF" fill-rule="nonzero" mask="url(#mask-2)" x="0" y="0" width="40" height="24" rx="1.6"></rect>
                </g>
            </g>
            <g id="XMLID_34_" transform="translate(5.000000, 6.000000)" fill="#000000" fill-rule="nonzero">
                <g id="XMLID_44_">
                    <path d="M5.37334857,1.65114634 C5.69408,1.22309756 5.91172571,0.648317073 5.85433143,0.0609756098 C5.38482286,0.085902439 4.81190857,0.391487805 4.48020571,0.819902439 C4.18237714,1.1867561 3.91876571,1.78558537 3.98747429,2.34831707 C4.51451429,2.39709756 5.04107429,2.06721951 5.37334857,1.65114634" id="XMLID_46_"></path>
                    <path d="M5.84834286,2.45819512 C5.08294857,2.40953659 4.43220571,2.92170732 4.06667429,2.92170732 C3.70098286,2.92170732 3.14125714,2.48270732 2.53588571,2.49453659 C1.74795429,2.50687805 1.01684571,2.98226829 0.616982857,3.73834146 C-0.205417143,5.25090244 0.399954286,7.49453659 1.19970286,8.72641463 C1.58809143,9.33587805 2.05613714,10.0069268 2.67289143,9.98280488 C3.25561143,9.95841463 3.484,9.58019512 4.19232,9.58019512 C4.90011429,9.58019512 5.10585143,9.98280488 5.72269714,9.97060976 C6.36237714,9.95841463 6.76228571,9.36085366 7.15067429,8.75082927 C7.59620571,8.05607317 7.77858286,7.3852439 7.79005714,7.34841463 C7.77858286,7.33621951 6.55659429,6.83597561 6.54525714,5.336 C6.53371429,4.08004878 7.50466286,3.48265854 7.55035429,3.44560976 C7.00205714,2.58026829 6.14534857,2.48270732 5.84834286,2.45819512" id="XMLID_45_"></path>
                </g>
                <g id="XMLID_35_" transform="translate(11.000000, 1.000000)">
                    <path d="M3.5122321,0.0252541667 C5.21941728,0.0252541667 6.40830123,1.1749375 6.40830123,2.84879375 C6.40830123,4.52863125 5.19506914,5.68434167 3.46954074,5.68434167 L1.57934568,5.68434167 L1.57934568,8.62092917 L0.213574074,8.62092917 L0.213574074,0.0252541667 L3.5122321,0.0252541667 Z M1.57934568,4.56435833 L3.14635309,4.56435833 C4.33535432,4.56435833 5.01205926,3.9389625 5.01205926,2.854775 C5.01205926,1.77070208 4.33535432,1.15115 3.15245185,1.15115 L1.57934568,1.15115 L1.57934568,4.56435833 Z" id="XMLID_41_"></path>
                    <path d="M6.74713457,6.83998333 C6.74713457,5.737875 7.60684938,5.10645208 9.19205926,5.01121042 L10.8931457,4.90985 L10.8931457,4.43336667 C10.8931457,3.73640208 10.423658,3.35516042 9.58840864,3.35516042 C8.89934198,3.35516042 8.39938395,3.70065208 8.29577531,4.23080625 L7.06408272,4.23080625 C7.10076914,3.11685 8.17382346,2.30681458 9.62497778,2.30681458 C11.185863,2.30681458 12.2040988,3.105025 12.2040988,4.34396875 L12.2040988,8.62092917 L10.9419358,8.62092917 L10.9419358,7.59050417 L10.9114889,7.59050417 C10.5517321,8.26358958 9.75905679,8.686425 8.89934198,8.686425 C7.63117407,8.686425 6.74713457,7.94784375 6.74713457,6.83998333 Z M10.8931457,6.28595 L10.8931457,5.80337083 L9.37495185,5.89872708 C8.52135926,5.95228333 8.07633704,6.26204792 8.07633704,6.80414167 C8.07633704,7.32831458 8.53970247,7.6679625 9.26522099,7.6679625 C10.1919519,7.6679625 10.8931457,7.09000417 10.8931457,6.28595 Z" id="XMLID_38_"></path>
                    <path d="M13.3644123,10.9202958 L13.3644123,9.88987083 C13.4497951,9.90160417 13.6570358,9.91354375 13.7667432,9.91354375 C14.3704272,9.91354375 14.7118407,9.66352292 14.9191988,9.02009167 L15.0411506,8.63885 L12.7302815,2.38425 L14.1569704,2.38425 L15.7666691,7.45930625 L15.797116,7.45930625 L17.4068148,2.38425 L18.7970519,2.38425 L16.4008,8.95459583 C15.8520519,10.4616187 15.2240198,10.9561375 13.8948173,10.9561375 C13.7912086,10.9561375 13.4558,10.9441979 13.3644123,10.9202958 Z" id="XMLID_36_"></path>
                </g>
            </g>
        </g>
    </g>
</svg>
