<svg width="40" height="24" viewBox="0 0 40 24" xmlns="http://www.w3.org/2000/svg" xmlns:xlink="http://www.w3.org/1999/xlink"><title>Discover-dark</title><defs><rect id="a" width="40" height="24" rx="1.6" fill="#fff"/><mask id="b" x="0" y="0" width="40" height="24"><use xlink:href="#a"/></mask><path d="M9.646 24H38.4c.884 0 1.6-.723 1.6-1.598v-8.923S29.28 20.747 9.646 24z" id="c"/></defs><g fill="none"><use mask="url(#b)" xlink:href="#a" stroke="#E6772F" fill="#fff"/><use fill="#E7772F" xlink:href="#c"/><path d="M7.315 11.929c-.3.257-.683.369-1.294.369h-.254V9.234h.254c.611 0 .979.105 1.294.374.325.279.52.708.52 1.153 0 .447-.195.892-.52 1.168zm-1.104-3.48H4.823v4.634h1.379c.734 0 1.264-.167 1.728-.536a2.287 2.287 0 0 0 .879-1.78c0-1.368-1.068-2.318-2.599-2.318zm3.035 0h.941v4.634h-.941zm3.252 1.776c-.568-.199-.734-.332-.734-.583 0-.291.297-.512.705-.512.283 0 .516.108.764.373l.491-.617a2.164 2.164 0 0 0-1.422-.515c-.857 0-1.51.571-1.51 1.325 0 .641.304.965 1.19 1.274.37.123.559.207.654.264a.547.547 0 0 1 .283.478c0 .377-.312.654-.734.654a1.12 1.12 0 0 1-1.03-.619l-.609.564c.435.61.957.883 1.676.883.98 0 1.671-.628 1.671-1.523 0-.737-.32-1.071-1.395-1.447m1.691.543c0 1.363 1.118 2.419 2.557 2.419.406 0 .754-.077 1.182-.27v-1.065c-.379.364-.711.508-1.141.508-.951 0-1.624-.658-1.624-1.598 0-.888.695-1.591 1.583-1.591.448 0 .79.152 1.182.521V8.627c-.414-.2-.753-.283-1.163-.283-1.431 0-2.576 1.077-2.576 2.423m11.39.793l-1.291-3.111h-1.03l2.053 4.751h.506l2.093-4.751h-1.022l-1.309 3.111m2.76 1.523h2.678v-.785h-1.733v-1.251h1.667v-.785h-1.667V9.234h1.733v-.785h-2.678v4.634m4.523-2.503h-.274V9.178h.29c.59 0 .906.237.906.688 0 .464-.316.713-.922.713zm1.894-.764c0-.868-.622-1.367-1.712-1.367h-1.403v4.634h.947V11.22h.123l1.305 1.863h1.162l-1.524-1.953c.712-.139 1.102-.605 1.102-1.314z" fill="#1A1918"/><path d="M23.392 10.778c0 1.334-1.13 2.416-2.525 2.416-1.394 0-2.524-1.081-2.524-2.416 0-1.334 1.13-2.416 2.524-2.416 1.395 0 2.525 1.082 2.525 2.416" fill="#E7772F"/></g></svg>
