<svg width="40" height="24" viewBox="0 0 40 24" xmlns="http://www.w3.org/2000/svg"><title>Paypal-dark</title><g transform="matrix(1 0 0 -1 0 24)" fill="none"><rect fill="#00457C" width="40" height="24" rx="1.6"/><path d="M31.37 15.203l-.807-5.133a.164.164 0 0 1 .162-.189h.812c.134 0 .249.098.27.231l.796 5.04a.164.164 0 0 1-.162.189h-.908a.164.164 0 0 1-.162-.138m-10.117-1.68h-.946a.274.274 0 0 1-.226-.12l-1.305-1.922-.553 1.847a.273.273 0 0 1-.262.195h-.93a.164.164 0 0 1-.155-.217l1.042-3.058-.98-1.383a.164.164 0 0 1 .134-.259h.945c.089 0 .173.044.225.117l3.146 4.541a.164.164 0 0 1-.135.257m7.695-1.83a1.05 1.05 0 0 0-1.062-.899c-.273 0-.492.088-.632.254-.139.165-.192.4-.148.661.085.533.519.906 1.055.906.267 0 .484-.089.628-.256.144-.169.201-.405.16-.666m1.312 1.832h-.941a.164.164 0 0 1-.162-.138l-.041-.263-.066.095c-.204.296-.658.395-1.112.395-1.04 0-1.928-.788-2.101-1.893-.09-.551.038-1.078.351-1.446.287-.338.697-.478 1.185-.478.838 0 1.303.538 1.303.538l-.042-.262a.164.164 0 0 1 .162-.189h.848c.135 0 .249.098.27.23l.509 3.222a.164.164 0 0 1-.162.189m-15.334-1.832a1.05 1.05 0 0 0-1.062-.899c-.273 0-.492.088-.632.254-.139.165-.192.4-.148.661.085.533.519.906 1.055.906.267 0 .484-.089.628-.256.144-.169.201-.405.16-.666m1.312 1.832h-.941a.164.164 0 0 1-.162-.138l-.041-.263-.066.095c-.204.296-.658.395-1.112.395-1.04 0-1.928-.788-2.101-1.893-.09-.551.038-1.078.351-1.446.287-.338.697-.478 1.185-.478.838 0 1.303.538 1.303.538l-.042-.262a.164.164 0 0 1 .162-.189h.848c.135 0 .249.098.27.23l.509 3.222a.164.164 0 0 1-.162.189m-5.651-.023c-.107-.706-.646-.706-1.168-.706h-.297l.208 1.317c.012.08.081.138.162.138h.136c.355 0 .69 0 .863-.202.103-.121.135-.3.096-.548m-.227 1.841H8.399a.273.273 0 0 1-.27-.231l-.795-5.04a.164.164 0 0 1 .162-.189h.939c.134 0 .249.098.27.23l.215 1.36a.273.273 0 0 0 .27.231h.622c1.295 0 2.042.627 2.237 1.869.088.543.004.97-.251 1.268-.28.328-.775.502-1.433.502m14.248-1.84c-.107-.706-.646-.706-1.168-.706h-.297l.208 1.317c.012.08.081.138.162.138h.136c.355 0 .69 0 .863-.202.103-.121.135-.3.096-.548m-.227 1.841H22.42a.273.273 0 0 1-.27-.231l-.795-5.04a.164.164 0 0 1 .162-.189h1.009c.094 0 .174.068.189.161l.226 1.429a.273.273 0 0 0 .27.231h.622c1.295 0 2.042.627 2.237 1.869.088.543.004.97-.251 1.268-.28.328-.775.502-1.433.502" fill="#fff"/></g></svg>
