<svg width="126" height="72" viewBox="0 0 126 72" fill="none" xmlns="http://www.w3.org/2000/svg">
<path d="M52.4878 0.0126383C53.05 0.0126383 53.6122 0.0265354 54.1729 0.00954921C56.1215 -0.0491305 58.0395 0.163971 59.9375 0.61179C61.0252 0.868127 62.1772 0.915996 63.222 1.28352C64.8611 1.8595 66.4451 2.60072 68.0307 3.32186C70.2872 4.34876 72.2343 5.83891 73.8765 7.68732C75.8404 9.89862 77.2406 12.408 77.8916 15.3682C78.3037 17.2398 78.1827 19.0959 78.0984 20.9397C78.0433 22.158 77.5439 23.3934 77.0659 24.5469C75.7914 27.6261 73.7417 30.1061 71.0746 32.0904C69.5212 33.247 67.8545 34.1596 66.0897 34.9348C64.567 35.6034 62.9968 36.0605 61.3929 36.4867C57.7745 37.4472 54.0917 37.6016 50.3998 37.5012C48.2796 37.4441 46.1595 37.2295 44.0469 36.811C40.7227 36.1532 37.5976 35.066 34.6716 33.369C32.147 31.9051 30.0176 29.9918 28.3739 27.5658C27.2648 25.9305 26.4299 24.1547 26.0729 22.1874C25.8922 21.1976 25.647 20.1969 25.644 19.2009C25.6409 18.0489 25.7543 16.8645 26.0362 15.7512C26.3992 14.3166 26.8848 12.8944 27.5022 11.5525C27.948 10.5842 28.6603 9.73031 29.3175 8.87327C30.7284 7.0295 32.4993 5.615 34.4709 4.39817C36.3169 3.25855 38.2655 2.38145 40.2937 1.67111C41.2328 1.3422 42.2194 1.13991 43.1983 0.943792C44.8098 0.61951 46.4214 0.242725 48.0529 0.0805836C49.5174 -0.0645715 51.008 0.0497 52.4863 0.0497C52.4878 0.0388906 52.4878 0.0265361 52.4878 0.0126383ZM37.881 3.20296C37.3999 4.42597 37.0093 5.39264 36.6401 6.36703C35.9017 8.31273 35.436 10.3387 35.4467 12.4126C35.4559 14.2594 35.6107 16.1233 35.9017 17.947C36.3107 20.5027 37.4153 22.8097 38.7955 24.9886C39.0176 25.3391 39.2827 25.9305 39.1387 26.2054C38.005 28.3858 36.7764 30.5168 35.5785 32.6617C35.6367 32.725 35.6934 32.7868 35.7516 32.8501C46.8366 24.5454 57.9215 16.2407 69.005 7.93594C68.959 7.86491 68.9131 7.79542 68.8671 7.72439C66.6841 8.84548 64.5027 9.97274 62.3151 11.0877C57.8986 13.3391 53.4774 15.5859 49.0578 17.8327C47.9947 18.3732 46.8948 18.3315 46.2345 17.615C45.012 16.2916 43.7819 14.9682 42.6667 13.5537C40.8897 11.2992 39.6442 8.74201 38.7725 6.00106C38.4999 5.1363 38.2226 4.27155 37.881 3.20296ZM60.3879 30.5307C60.3879 30.0474 60.3879 29.5887 60.3879 29.1301C60.3879 28.6499 60.3879 28.1696 60.3879 27.6986C59.1624 27.6075 59.1624 27.6075 59.1624 28.6885C59.1624 29.3 59.1624 29.9115 59.1624 30.5523C58.7687 30.5523 58.4485 30.5523 58.1023 30.5523C58.1115 30.3655 58.0686 30.1138 58.1345 30.0829C58.9265 29.6891 58.6446 28.9618 58.7074 28.3379C58.7549 27.8685 58.5144 27.6724 58.1069 27.6616C57.3425 27.6431 56.575 27.6307 55.8121 27.6786C55.6773 27.6863 55.4628 27.9905 55.4536 28.1681C55.3954 29.2104 55.3648 30.2543 55.3893 31.2966C55.3923 31.4248 55.7723 31.6394 55.9791 31.6394C56.1552 31.6394 56.4739 31.397 56.4831 31.2472C56.5336 30.435 56.5076 29.6181 56.5076 28.7255C56.8523 28.7502 57.2322 28.7765 57.6136 28.8043C57.6106 28.8645 57.6075 28.9247 57.6044 28.985C57.3685 29.0236 57.1326 29.0622 56.866 29.1054C56.866 29.6366 56.8614 30.123 56.8676 30.6095C56.8768 31.4418 57.0621 31.5514 57.8878 31.5468C59.1517 31.5406 60.417 31.6518 61.6793 31.641C61.9643 31.6379 62.479 31.3538 62.4943 31.1669C62.574 30.1447 62.5571 29.1116 62.5219 28.0847C62.5004 27.4655 61.9658 27.6276 61.6456 27.6863C61.4572 27.7218 61.1998 28.0538 61.1891 28.2638C61.1631 28.7889 61.2535 29.3201 61.3101 29.8482C61.3775 30.489 61.085 30.6944 60.3879 30.5307ZM51.8996 31.0017C52.3607 31.5669 54.0871 31.9591 54.7643 31.6302C54.8776 31.5746 55.0078 31.4078 55.0094 31.2889C55.0216 30.4659 55.0078 29.6413 54.991 28.8166C54.9848 28.5094 54.942 28.2021 54.9144 27.8623C53.6827 27.4361 53.7471 27.7419 53.8053 28.6035C53.8298 28.9788 53.9248 29.3525 53.9156 29.7262C53.9094 30.0119 53.7915 30.2944 53.7195 30.5894C53.4805 30.5786 53.2859 30.5693 52.978 30.5554C52.978 29.5826 52.978 28.6545 52.978 27.7789C51.4002 27.7789 49.9387 27.7789 48.488 27.7789C48.2291 29.1826 49.5618 29.5687 50.0138 30.6033C49.4378 30.6033 48.9506 30.6033 48.4772 30.6033C48.4772 31.0017 48.4772 31.3013 48.4772 31.5931C50.6005 31.8819 51.3956 31.7414 51.8996 31.0017ZM56.7129 22.8977C56.7129 24.0404 56.6899 25.1414 56.7374 26.2409C56.745 26.4092 57.082 26.6965 57.2735 26.7026C58.4899 26.7443 59.7093 26.7243 60.9639 26.7243C60.9915 26.2347 61.0145 25.8116 61.0421 25.3144C61.5614 25.3144 62.0332 25.3144 62.4989 25.3144C62.4989 24.9855 62.4989 24.7353 62.4989 24.408C61.9964 24.408 61.5231 24.408 61.0191 24.408C61.0191 24.2057 61.0038 23.9756 61.0206 23.9725C61.7192 23.8675 62.4208 23.7841 63.1056 23.6992C63.1056 23.4289 63.1056 23.1803 63.1056 22.8668C62.3595 22.8668 61.6502 22.8653 60.9394 22.8668C60.08 22.8699 59.7859 23.171 59.7752 24.0682C59.769 24.6257 59.7736 25.1847 59.7736 25.7298C57.9353 25.9475 57.9353 25.9475 57.9353 24.2443C57.9353 24.1408 57.9353 24.0389 57.9353 23.9354C57.9369 22.8375 57.9369 22.8375 56.7129 22.8977ZM68.3539 30.3083C68.3539 30.5168 68.36 30.6666 68.3524 30.8164C68.334 31.2071 68.311 31.6286 68.8472 31.641C69.368 31.6533 69.7127 31.4418 69.5856 30.8118C69.5411 30.5894 69.5779 30.3516 69.5779 30.1215C69.5779 27.555 69.5779 27.555 67.015 27.6554C66.9384 27.6585 66.8358 27.6261 66.7913 27.6647C66.6382 27.7944 66.3869 27.9457 66.3823 28.0955C66.3486 29.2166 66.3639 30.3377 66.3639 31.4773C66.8113 31.4773 67.1805 31.4773 67.5573 31.4773C67.2984 30.4288 67.3888 30.2852 68.3539 30.3083ZM56.4049 24.8511C56.4049 24.4929 56.3942 24.1331 56.408 23.7748C56.4294 23.1587 56.1644 22.8468 55.5348 22.8637C55.0523 22.8761 54.5666 22.8962 54.0871 22.8576C53.5602 22.8143 53.3457 23.0568 53.3442 23.5494C53.3396 24.4203 53.3534 25.2912 53.338 26.1622C53.3304 26.6069 53.5402 26.7551 53.9477 26.7289C54.1499 26.715 54.3537 26.7273 54.5574 26.7273C56.4049 26.7273 56.4049 26.7273 56.4049 24.8511ZM53.0025 22.8684C52.2703 22.8684 51.5595 22.7603 50.9099 22.9116C50.5469 22.9965 50.095 23.4691 50.0138 23.8412C49.8682 24.5037 49.9617 25.2202 49.977 25.9151C49.9877 26.4262 50.2696 26.7134 50.7767 26.7227C51.5089 26.7382 52.2412 26.7273 53.0347 26.7273C53.0347 26.1127 53.0868 25.5707 53.0071 25.0488C52.9796 24.8666 52.6456 24.6581 52.4173 24.6025C52.2458 24.5608 52.019 24.74 51.8337 24.8141C51.8122 25.1569 51.7939 25.4595 51.7693 25.8626C51.5043 25.7668 51.1489 25.7174 51.1351 25.6201C51.0693 25.1461 51.0264 24.6427 51.1321 24.1871C51.1642 24.0481 51.6912 23.9678 51.9945 23.9601C53.0546 23.9292 53.0546 23.9447 53.0025 22.8684ZM64.9347 31.4835C65.0986 30.8689 64.5961 29.8791 65.9488 30.1431C65.9871 29.4868 66.0131 28.9124 66.0591 28.3379C66.0974 27.8562 65.935 27.6338 65.4157 27.6415C64.9178 27.6477 64.8029 27.887 64.829 28.3179C64.8458 28.5958 64.832 28.8753 64.832 29.1363C64.5548 29.2135 64.3433 29.2706 64.1273 29.3309C63.9159 27.5442 63.9159 27.5442 62.8405 27.7604C62.8405 28.3379 62.8528 28.9263 62.8359 29.5146C62.8237 29.9254 62.9661 30.0983 63.3981 30.1539C63.5896 30.1786 63.8056 30.489 63.8945 30.716C63.9788 30.9307 63.9129 31.2071 63.9129 31.485C64.2913 31.4835 64.5884 31.4835 64.9347 31.4835ZM48.0575 28.7363C48.2827 27.9025 48.0437 27.5782 47.2532 27.6431C46.5685 27.6986 45.8776 27.6539 45.1882 27.6554C44.2446 27.6585 44.2231 27.6863 44.4023 28.7611C44.8052 28.7611 45.2235 28.7611 45.6815 28.7611C45.6815 29.5857 45.6922 30.3284 45.6769 31.0696C45.6677 31.4866 45.8286 31.7661 46.2452 31.6441C46.4521 31.5839 46.714 31.2843 46.7309 31.0758C46.7891 30.3176 46.7538 29.5517 46.7538 28.7363C47.2425 28.7363 47.6424 28.7363 48.0575 28.7363Z" fill="black"/>
<path d="M64.5416 45.7363C64.6806 47.5278 64.8181 49.2805 64.9478 50.954C62.2025 51.6976 59.6041 52.4008 57.004 53.1041C57.0103 53.1599 57.015 53.2143 57.0212 53.2702C57.729 53.2702 58.4384 53.2345 59.1431 53.2764C61.6384 53.4239 63.9588 54.0572 65.6213 56.0614C67.1994 57.9647 67.8166 60.1722 67.4447 62.6421C67.215 64.1743 66.651 65.5591 65.5666 66.6644C63.7931 68.4729 61.6463 69.437 59.0494 69.4261C51.8118 69.3966 44.5727 69.4152 37.3352 69.4152C37.0258 69.4152 36.7165 69.4152 36.368 69.4152C36.3415 69.26 36.3024 69.1389 36.3024 69.0194C36.2993 66.1226 36.3118 63.2242 36.2868 60.3274C36.2821 59.7484 36.5712 59.4938 37.0555 59.4922C41.4321 59.4736 45.8087 59.486 50.1853 59.4767C51.7478 59.4736 52.9743 60.0899 53.8431 61.3784C53.9431 61.5274 53.9462 61.7572 53.9494 61.9512C53.9619 62.6467 53.954 63.3407 53.954 64.137C55.6822 64.137 57.365 64.1634 59.0462 64.1277C60.2884 64.1029 61.2994 63.6201 61.9416 62.4884C62.7369 61.0897 61.59 58.8713 60.0337 58.8604C52.4415 58.8045 44.8493 58.7455 37.2571 58.7191C36.5227 58.716 36.2399 58.5453 36.2805 57.7737C36.343 56.5613 36.3087 55.3426 36.2915 54.1271C36.2837 53.5558 36.5165 53.3555 37.0977 53.2453C38.0993 53.0528 39.0665 52.6865 40.0555 52.421C40.6446 52.2626 41.2477 52.1602 41.8431 52.0282C42.0306 51.9863 42.2149 51.9273 42.3837 51.7193C40.793 51.7193 39.2024 51.7115 37.6133 51.7209C36.2571 51.7286 36.2587 51.415 36.2883 50.4137C36.3274 49.0445 36.3102 47.6722 36.2915 46.3014C36.2852 45.8372 36.4508 45.6587 36.9274 45.6587C46.0665 45.6696 55.204 45.6711 64.3431 45.6758C64.3947 45.6742 64.4416 45.7037 64.5416 45.7363ZM42.2899 64.137C43.9321 64.137 45.5165 64.1013 47.0993 64.1526C47.7993 64.1758 48.0884 63.9647 47.9743 63.1978C47.6759 63.1978 47.3665 63.1978 47.0556 63.1978C45.7806 63.1978 44.5024 63.263 43.2337 63.1777C42.1915 63.1093 42.1977 63.0302 42.2899 64.137Z" fill="black"/>
<path d="M92.9936 45.6742C92.126 47.9086 91.2953 50.0484 90.4047 52.3434C92.3054 52.3434 93.9623 52.2751 95.6115 52.3589C98.4134 52.5001 101.638 54.4739 102.612 57.7464C102.996 59.0406 103.304 60.3161 103.168 61.6412C102.976 63.5048 102.446 65.2241 101.11 66.6641C99.7715 68.1056 98.0885 68.8008 96.3135 69.3842C96.1511 69.4385 95.9595 69.4106 95.7817 69.4106C91.798 69.4122 87.8128 69.3951 83.8292 69.4261C83.1471 69.4308 83.0183 69.1685 82.931 68.5448C82.7149 66.9977 82.3822 65.4677 82.0772 63.8245C82.3347 63.8245 82.5984 63.8245 82.8635 63.8245C86.8732 63.8245 90.883 63.8105 94.8927 63.8338C96.0422 63.84 96.778 63.1929 97.319 62.3224C97.8693 61.4364 97.6777 60.4805 97.2255 59.5837C96.7289 58.5999 95.9334 58.2197 94.839 58.2259C89.8591 58.2554 84.8776 58.2383 79.8976 58.2383C79.6202 58.2383 79.3428 58.2383 78.9197 58.2383C79.5696 61.9748 80.2073 65.6415 80.8556 69.3656C78.8339 69.3656 76.9011 69.3656 74.8809 69.3656C74.6127 68.0048 74.326 66.6051 74.0655 65.2008C73.8401 63.9827 73.6623 62.7538 73.4324 61.5357C73.2592 60.6155 72.9956 59.7109 72.853 58.7861C72.7841 58.3392 72.6063 58.229 72.2123 58.2337C71.2161 58.2476 70.2167 58.1856 69.225 58.2554C68.4709 58.3082 68.0647 58.0661 67.9957 57.2949C67.8501 55.6749 67.7045 54.0565 67.5497 52.345C68.9798 52.345 70.2688 52.345 71.659 52.345C71.449 51.1377 71.2544 50.022 71.0612 48.9079C70.8972 47.9614 70.7179 47.0179 70.5907 46.0668C70.5754 45.955 70.8528 45.6897 70.9969 45.6881C72.6829 45.6618 74.3689 45.6385 76.0535 45.6866C76.7125 45.7052 76.7095 46.3709 76.8122 46.838C77.0819 48.0685 77.3027 49.3083 77.5525 50.5434C77.6705 51.1315 77.8069 51.7165 77.9434 52.3403C79.8164 52.3403 81.6526 52.3496 83.4889 52.3263C83.6698 52.3248 83.9441 52.1727 84.0116 52.0175C84.6002 50.6598 85.1474 49.2834 85.7175 47.9164C85.9888 47.2647 86.2647 46.613 86.5805 45.983C86.6556 45.834 86.8993 45.6866 87.0664 45.685C89.0023 45.6664 90.9381 45.6742 92.9936 45.6742Z" fill="black"/>
<path d="M0 60.8584C0 60.5665 0 60.3892 0 60.2135C0 58.5339 0 56.8527 0 55.0509C0.324715 55.0509 0.622892 55.0509 0.921068 55.0509C9.87103 55.0509 18.821 55.0142 27.771 55.0799C29.7239 55.0936 31.4708 55.8761 32.9383 57.2409C34.8647 59.0336 35.2706 61.3169 34.9038 63.6614C34.6212 65.4724 33.6283 67.0909 31.9439 68.1592C30.62 68.9997 29.201 69.4338 27.607 69.4261C21.9355 69.4017 16.2639 69.417 10.5923 69.417C10.3128 69.417 10.0334 69.417 9.71648 69.417C9.71648 67.5723 9.71648 65.7995 9.71648 63.9151C9.98812 63.9151 10.2629 63.9151 10.5361 63.9151C16.1296 63.9151 21.7231 63.9089 27.3167 63.9212C28.0847 63.9227 28.7186 63.6705 29.0698 63.021C29.4648 62.292 28.9871 61.6455 28.6249 61.051C28.5281 60.8936 28.1207 60.8661 27.8568 60.8661C23.5637 60.8554 19.2706 60.8584 14.9791 60.8584C10.2957 60.8584 5.61227 60.8584 0.930434 60.8584C0.64943 60.8584 0.368427 60.8584 0 60.8584Z" fill="black"/>
<path d="M13.1853 53.1441C10.8647 53.2574 9.38196 51.6787 9.38196 49.5828C9.38343 47.5287 10.5452 45.5147 13.3664 45.6668C15.2835 45.7696 16.9915 47.2752 16.8825 49.4666C16.7898 51.3627 15.4425 53.3886 13.1853 53.1441ZM13.0954 51.3553C14.2395 51.3582 15.1127 50.4966 15.0818 49.3965C15.0553 48.4499 14.082 47.4735 13.1735 47.4795C12.1133 47.4869 11.3374 48.3157 11.2549 49.3443C11.1607 50.4951 12.0117 51.3866 13.0954 51.3553Z" fill="black"/>
<path d="M27.7809 48.6661C29.1471 48.6661 30.4598 48.6661 31.7206 48.6661C31.7878 48.742 31.8183 48.7587 31.8198 48.7784C32.0091 50.7732 32.0091 50.7732 30.0186 50.7732C29.286 50.7732 28.5518 50.7732 27.7366 50.7732C27.7366 51.5899 27.7366 52.3596 27.7366 53.1642C27.0024 53.1642 26.3507 53.1642 25.6439 53.1642C25.6439 50.6806 25.6439 48.1939 25.6439 45.6587C27.6832 45.6587 29.7256 45.6587 31.7618 45.6587C31.7923 45.724 31.8305 45.7665 31.8305 45.8105C31.8504 47.9935 32.0702 47.5336 30.1026 47.5837C29.6202 47.5958 29.1364 47.5852 28.654 47.5852C27.6802 47.5867 27.6802 47.5882 27.7809 48.6661Z" fill="black"/>
<path d="M6.18601 46.1531C5.83398 46.6865 5.48683 47.2125 5.14295 47.7339C4.16834 47.4007 2.98512 47.5472 2.54019 48.0373C1.8459 48.8038 1.72856 49.7258 2.23053 50.4848C2.84822 51.4187 4.5986 51.6712 5.38905 50.9286C5.48032 50.8434 5.49824 50.6641 5.49009 50.5326C5.48521 50.4684 5.31897 50.3444 5.26518 50.3608C3.90595 50.7628 4.28894 49.8274 4.23353 49.2356C4.22212 49.1176 4.2482 48.9966 4.26124 48.8412C5.55692 48.8412 6.81511 48.8412 8.06678 48.8412C8.4563 50.579 6.99438 52.2764 5.81768 52.8098C4.2482 53.5226 1.8785 53.0997 0.972337 52.0807C-0.144065 50.827 -0.295635 48.49 0.499699 47.3365C1.53787 45.8273 3.79349 45.1056 6.18601 46.1531Z" fill="black"/>
<path d="M25.0185 51.0101C25.0185 51.7915 25.0185 52.4368 25.0185 53.1622C22.8849 53.1622 20.7867 53.1743 18.6885 53.1395C18.5029 53.1365 18.1673 52.8237 18.1639 52.6514C18.1285 50.3376 18.1403 48.0238 18.1403 45.6587C18.982 45.6587 19.7764 45.6587 20.6366 45.6587C20.6366 47.4193 20.6366 49.1739 20.6366 51.0101C22.1107 51.0101 23.5258 51.0101 25.0185 51.0101Z" fill="black"/>
<path d="M60.2832 30.6881C61.0128 30.8664 61.3191 30.6427 61.2469 29.9446C61.1876 29.3692 61.093 28.7905 61.1203 28.2186C61.1315 27.9898 61.4009 27.6264 61.5981 27.5894C61.9316 27.5255 62.4928 27.3488 62.5153 28.0234C62.5522 29.1421 62.5698 30.2676 62.4864 31.3812C62.4704 31.5848 61.9332 31.8943 61.6334 31.8977C60.3105 31.9095 58.9876 31.7883 57.6647 31.7951C56.8004 31.8001 56.6064 31.6807 56.5968 30.7739C56.5904 30.244 56.5952 29.7141 56.5952 29.1354C56.8742 29.0883 57.1211 29.0462 57.3681 29.0042C57.3713 28.9386 57.3745 28.873 57.3777 28.8074C56.9784 28.7771 56.5792 28.7485 56.22 28.7216C56.22 29.6939 56.2472 30.5838 56.1943 31.4687C56.1847 31.6319 55.8512 31.896 55.6668 31.896C55.4519 31.896 55.0526 31.6622 55.0494 31.5225C55.0238 30.387 55.0558 29.2481 55.1168 28.1143C55.1264 27.9208 55.3509 27.5911 55.492 27.581C56.2905 27.5288 57.0939 27.5423 57.894 27.5625C58.3222 27.5742 58.5723 27.7879 58.5226 28.2993C58.4568 28.9806 58.7519 29.7713 57.9229 30.2003C57.8555 30.2356 57.8988 30.5098 57.8892 30.7117C58.2516 30.7117 58.5867 30.7117 58.9988 30.7117C58.9988 30.0135 58.9988 29.3474 58.9988 28.6812C58.9988 27.5019 58.9988 27.5019 60.2816 27.6028C60.2816 28.1159 60.2816 28.6391 60.2816 29.1623C60.2832 29.6619 60.2832 30.1616 60.2832 30.6881Z" fill="white"/>
<path d="M51.4448 31.0947C50.9642 31.8887 50.2062 32.0379 48.1818 31.7296C48.1818 31.4163 48.1818 31.0947 48.1818 30.667C48.6331 30.667 49.0976 30.667 49.6468 30.667C49.2159 29.5581 47.9452 29.1436 48.192 27.6352C49.5738 27.6352 50.9672 27.6352 52.473 27.6352C52.473 28.5767 52.473 29.573 52.473 30.6156C52.7666 30.6306 52.9521 30.6405 53.18 30.6521C53.2486 30.3338 53.3611 30.0305 53.3669 29.7255C53.3742 29.3243 53.2851 28.9232 53.2618 28.5204C53.2063 27.597 53.1449 27.2672 54.3192 27.7247C54.347 28.0894 54.3864 28.4192 54.3923 28.7491C54.4098 29.6327 54.4229 30.5178 54.4098 31.403C54.4083 31.529 54.2842 31.7097 54.1761 31.7694C53.5291 32.1225 51.8844 31.7031 51.4448 31.0947ZM51.3192 30.7963C51.3192 29.9642 51.3192 29.3475 51.3192 28.7292C50.7481 28.7292 50.2179 28.7292 49.6161 28.7292C50.1872 29.4221 50.6926 30.0355 51.3192 30.7963Z" fill="white"/>
<path d="M56.9221 23.1675C58.1184 23.12 58.1184 23.12 58.1184 24.0075C58.1184 24.0912 58.1184 24.1737 58.1184 24.2575C58.1184 25.6374 58.1184 25.6374 59.915 25.4599C59.915 25.0187 59.9106 24.5675 59.9165 24.115C59.927 23.3875 60.2145 23.1438 61.0544 23.1425C61.7476 23.1413 62.4423 23.1425 63.1715 23.1425C63.1715 23.3963 63.1715 23.5975 63.1715 23.8162C62.5022 23.885 61.8165 23.9525 61.1338 24.0375C61.1158 24.04 61.1323 24.2262 61.1323 24.39C61.6234 24.39 62.0875 24.39 62.5786 24.39C62.5786 24.655 62.5786 24.8562 62.5786 25.1237C62.1234 25.1237 61.6638 25.1237 61.1547 25.1237C61.1278 25.5274 61.1053 25.8687 61.0784 26.2649C59.8537 26.2649 58.6619 26.2824 57.4716 26.2474C57.2845 26.2424 56.9551 26.0099 56.9476 25.8737C56.8997 24.9837 56.9221 24.0912 56.9221 23.1675Z" fill="white"/>
<path d="M68.2149 30.447C67.2865 30.4234 67.1996 30.5799 67.4501 31.7195C67.0861 31.7195 66.7325 31.7195 66.3022 31.7195C66.3022 30.4773 66.2874 29.2552 66.3199 28.0331C66.3243 27.8699 66.5645 27.7049 66.7133 27.5635C66.756 27.5214 66.8562 27.5568 66.9284 27.5534C69.3938 27.444 69.3938 27.444 69.3938 30.2416C69.3938 30.4924 69.3584 30.7533 69.4011 30.994C69.522 31.6808 69.1919 31.9114 68.6909 31.8979C68.1751 31.8845 68.1972 31.4249 68.2149 30.9991C68.2208 30.8375 68.2149 30.6742 68.2149 30.447Z" fill="white"/>
<path d="M56.2881 24.7529C56.2881 26.2654 56.2881 26.2654 54.0289 26.2654C53.7799 26.2654 53.531 26.2567 53.2839 26.2667C52.7879 26.2891 52.5296 26.1696 52.5389 25.8098C52.5577 25.1077 52.5408 24.4055 52.5464 23.7034C52.5483 23.3063 52.8103 23.1121 53.4542 23.1457C54.0401 23.1768 54.6335 23.1606 55.2231 23.1507C55.9924 23.137 56.3162 23.3897 56.29 23.8852C56.275 24.174 56.2881 24.464 56.2881 24.7529ZM54.742 25.4674C54.742 24.9259 54.742 24.4342 54.742 23.8578C53.574 24.0271 54.1861 24.6109 54.0644 24.9657C53.9746 25.2272 53.8773 25.6492 54.742 25.4674Z" fill="white"/>
<path d="M52.4912 23.1727C52.545 24.0372 52.5434 24.0235 51.4787 24.0471C51.1744 24.0533 50.6444 24.1177 50.6136 24.2291C50.5092 24.5957 50.5522 24.9982 50.6167 25.3784C50.6305 25.4564 50.987 25.496 51.2528 25.5728C51.2774 25.2496 51.2958 25.0081 51.3173 24.7319C51.5032 24.6725 51.7306 24.5276 51.9027 24.5623C52.1316 24.6068 52.4666 24.774 52.4943 24.9202C52.5741 25.3387 52.5219 25.7734 52.5219 26.2663C51.726 26.2663 50.9916 26.275 50.2572 26.2626C49.7486 26.2539 49.4659 26.0236 49.4551 25.6149C49.4398 25.0589 49.3461 24.483 49.492 23.9517C49.5734 23.6533 50.0267 23.2731 50.3908 23.2062C51.0438 23.0848 51.7552 23.1727 52.4912 23.1727Z" fill="white"/>
<path d="M64.8002 31.8985C64.5309 31.8985 64.3006 31.8985 64.0063 31.8985C64.0063 31.5819 64.0574 31.2688 63.9921 31.0225C63.9233 30.764 63.7559 30.4104 63.6076 30.3823C63.2729 30.319 63.1626 30.1237 63.1721 29.6541C63.1851 28.9839 63.1756 28.3138 63.1756 27.6559C64.0087 27.4097 64.0087 27.4097 64.1725 29.4448C64.3398 29.3762 64.5036 29.3111 64.7184 29.2231C64.7184 28.9259 64.729 28.6075 64.716 28.2909C64.6958 27.8002 64.786 27.5275 65.1705 27.5205C65.5728 27.5117 65.6998 27.765 65.6689 28.3138C65.6333 28.9681 65.6143 29.6224 65.5835 30.37C64.5392 30.0709 64.9272 31.1984 64.8002 31.8985Z" fill="white"/>
<path d="M47.4559 28.7146C47.0485 28.7146 46.656 28.7146 46.1764 28.7146C46.1764 29.5988 46.211 30.4277 46.1538 31.2516C46.1388 31.4776 45.8802 31.8025 45.6772 31.8678C45.2697 31.9984 45.1103 31.697 45.1193 31.2449C45.1344 30.4394 45.1238 29.6339 45.1238 28.7414C44.6728 28.7414 44.2638 28.7414 43.8683 28.7414C43.6924 27.5759 43.7134 27.5457 44.6397 27.5424C45.3163 27.5407 45.9944 27.5893 46.6665 27.529C47.4409 27.4586 47.677 27.8103 47.4559 28.7146Z" fill="white"/>
<path d="M118.801 71.5021C118.686 70.1162 118.681 70.2154 119.977 70.3028C121.555 70.4097 123.147 70.3281 124.731 70.3281C125.116 70.3281 125.503 70.3281 125.874 70.3281C126.016 71.2883 125.655 71.5507 124.786 71.5235C122.815 71.4574 120.842 71.5021 118.801 71.5021Z" fill="white"/>
<path d="M13.0678 51.2871C12.0072 51.3123 11.1743 50.5932 11.2651 49.6648C11.3458 48.8351 12.1066 48.1676 13.1427 48.1604C14.0318 48.1544 14.9843 48.9433 15.0102 49.7069C15.0419 50.5944 14.1874 51.2895 13.0678 51.2871Z" fill="white"/>
<path d="M51.2878 31.273C50.8275 30.5823 50.4563 30.0256 50.0369 29.3966C50.4789 29.3966 50.8683 29.3966 51.2878 29.3966C51.2878 29.9579 51.2878 30.5176 51.2878 31.273Z" fill="black"/>
<path d="M55.0405 26.2193C53.5651 26.4255 53.734 25.9481 53.8869 25.6501C54.0941 25.2476 53.0521 24.5852 55.0405 24.3931C55.0405 25.047 55.0405 25.6035 55.0405 26.2193Z" fill="black"/>
</svg>
