<svg xmlns="http://www.w3.org/2000/svg" viewBox="0 0 28.83 25.37">
  <defs>
    <style>
      .cls-1 {
        fill: #fff;
      }
    </style>
  </defs>
  <title>icon</title>
  <g id="Layer_2" data-name="Layer 2">
    <g id="Layer_1-2" data-name="Layer 1">
      <path class="cls-1" d="M9.8,15.2h8.06a2.53,2.53,0,0,0,2.53-2.49V2.53A2.53,2.53,0,0,0,17.86,0H2.53A2.53,2.53,0,0,0,0,2.53V12.71a2.53,2.53,0,0,0,2.53,2.53h.84v2.47a.85.85,0,0,0,.83.85.88.88,0,0,0,.42-.11h.07l4.65-3.11A.86.86,0,0,1,9.8,15.2ZM4.22,5H16.16a.85.85,0,1,1,0,1.69H4.22A.85.85,0,0,1,4.22,5Zm0,5.12a.85.85,0,0,1,0-1.69h6.87a.85.85,0,0,1,0,1.69ZM26.35,6.71H22.08v6a4.23,4.23,0,0,1-4.22,4.22h-7.8L8.45,18v1.47A2.53,2.53,0,0,0,11,22h8.31l4.85,3.24A.85.85,0,0,0,25.32,25a.86.86,0,0,0,.14-.47V22h.84a2.53,2.53,0,0,0,2.53-2.53V9.29A2.53,2.53,0,0,0,26.35,6.71Z"/>
    </g>
  </g>
</svg>
