<svg width="17" height="14" viewBox="0 0 17 14" xmlns="http://www.w3.org/2000/svg"><title>Email_icon</title><path d="M1.771.968c-.586 0-1.062.485-1.062 1.083v9.389c0 .599.477 1.083 1.062 1.083h13.458c.586 0 1.063-.484 1.063-1.083V2.051c0-.599-.477-1.083-1.063-1.083H1.771zm13.458 12.278H1.771C.795 13.246 0 12.438 0 11.44V2.051C0 1.054.795.245 1.771.245h13.458c.976 0 1.771.809 1.771 1.806v9.389c0 .997-.795 1.806-1.771 1.806zM8.302 8.935c-.718 0-1.39-.304-1.891-.859L2.014 3.172a.37.37 0 0 1 .023-.513.355.355 0 0 1 .5.021l4.397 4.904c.73.81 2.007.81 2.738 0l4.388-4.896a.356.356 0 0 1 .501-.022.37.37 0 0 1 .022.513l-4.389 4.897a2.531 2.531 0 0 1-1.892.859m-6.026 2.304a.351.351 0 0 1-.261-.123.36.36 0 0 1 .023-.506l3.865-3.604a.356.356 0 0 1 .501.022.37.37 0 0 1-.023.513l-3.865 3.597a.346.346 0 0 1-.239.102m12.055-.001a.345.345 0 0 1-.239-.102L10.225 7.54a.369.369 0 0 1-.023-.513.356.356 0 0 1 .5-.022l3.868 3.604c.144.13.155.361.023.506a.353.353 0 0 1-.261.123" fill="#fff"/></svg>
