<?xml version="1.0" encoding="utf-8"?>
<!-- Generator: Adobe Illustrator 16.0.0, SVG Export Plug-In . SVG Version: 6.00 Build 0)  -->
<!DOCTYPE svg PUBLIC "-//W3C//DTD SVG 1.1//EN" "http://www.w3.org/Graphics/SVG/1.1/DTD/svg11.dtd">
<svg version="1.1" id="Layer_1" xmlns="http://www.w3.org/2000/svg" xmlns:xlink="http://www.w3.org/1999/xlink"   x="0px" y="0px"
	 width="24px"  viewBox="0 0 319.479 319.479" enable-background="new 0 0 319.479 319.479"
	 xml:space="preserve">
<circle fill="none" stroke="#555" stroke-width="20" cx="125" cy="125" r="120"></circle>
<!-- <g>
	<path fill="#555" d="M127.878,19.329c58.019,0,105.22,47.201,105.22,105.22S185.896,229.77,127.878,229.77
		c-58.019,0-105.221-47.202-105.221-105.221S69.859,19.329,127.878,19.329 M127.878,3.329C60.93,3.329,6.657,57.602,6.657,124.549
		c0,66.948,54.272,121.221,121.221,121.221c66.947,0,121.22-54.272,121.22-121.221C249.098,57.602,194.825,3.329,127.878,3.329
		L127.878,3.329z"/>
</g> -->
<line fill="none" stroke="#555" stroke-width="14" stroke-linecap="round" stroke-miterlimit="10" x1="305.739" y1="306.74" x2="211.239" y2="212.24"/>
</svg>
