<?xml version="1.0" encoding="UTF-8"?>
<svg width="30px" height="30px" viewBox="0 0 30 30" version="1.1" xmlns="http://www.w3.org/2000/svg" xmlns:xlink="http://www.w3.org/1999/xlink">
    <!-- Generator: Sketch 55.2 (78181) - https://sketchapp.com -->
    <title>close circle</title>
    <desc>Created with Sketch.</desc>
    <g id="Page-1" stroke="none" stroke-width="1" fill="none" fill-rule="evenodd">
        <g id="Mobile-Cart---Addons-not-selected" transform="translate(-328.000000, -719.000000)">
            <g id="Group-3" transform="translate(329.000000, 720.000000)">
                <g id="close-circle">
                    <path d="M18.7742536,9.22598762 C18.4729368,8.92467079 17.970407,8.92467079 17.6690902,9.22598762 L14.0001206,12.8949572 L10.35678,9.22598762 C10.0554632,8.92467079 9.55293347,8.92467079 9.25161664,9.22598762 C8.95029981,9.52730445 8.95029981,10.0298342 9.25161664,10.331151 L12.8949572,14.0001206 L9.22598762,17.6434612 C8.92467079,17.944778 8.92467079,18.4473077 9.22598762,18.7486246 C9.37713852,18.8997755 9.57735641,18.974371 9.77856932,18.974371 C9.97978222,18.974371 10.1809951,18.8987955 10.331151,18.7486246 L14.0001206,15.105284 L17.6434612,18.7742536 C17.7946121,18.9254045 17.99483,19 18.1960429,19 C18.3972558,19 18.5984687,18.9244246 18.7486246,18.7742536 C19.0499414,18.4729368 19.0499414,17.970407 18.7486246,17.6690902 L15.105284,14.0001206 L18.7742536,10.35678 C19.0755704,10.0299347 19.0755704,9.55293347 18.7742536,9.22608813 L18.7742536,9.22598762 Z" id="Fill-1" fill="#000000"></path>
                    <path d="M28,14 C28,21.7325623 21.7325623,28 14,28 C6.2674377,28 0,21.7325623 0,14 C0,6.2674377 6.2674377,0 14,0 C21.7325623,0 28,6.2674377 28,14" id="Stroke-3" stroke="#000000" stroke-linecap="round" stroke-linejoin="round"></path>
                </g>
            </g>
        </g>
    </g>
</svg>