<svg id="visual" viewBox="0 0 900 600" width="900" height="600" xmlns="http://www.w3.org/2000/svg" xmlns:xlink="http://www.w3.org/1999/xlink" version="1.1"><rect x="0" y="0" width="900" height="600" fill="#f4f4f4"></rect><path d="M0 189L18.8 177C37.7 165 75.3 141 112.8 127C150.3 113 187.7 109 225.2 116.7C262.7 124.3 300.3 143.7 337.8 150.3C375.3 157 412.7 151 450.2 147.7C487.7 144.3 525.3 143.7 562.8 135.5C600.3 127.3 637.7 111.7 675.2 121.8C712.7 132 750.3 168 787.8 179C825.3 190 862.7 176 881.3 169L900 162L900 0L881.3 0C862.7 0 825.3 0 787.8 0C750.3 0 712.7 0 675.2 0C637.7 0 600.3 0 562.8 0C525.3 0 487.7 0 450.2 0C412.7 0 375.3 0 337.8 0C300.3 0 262.7 0 225.2 0C187.7 0 150.3 0 112.8 0C75.3 0 37.7 0 18.8 0L0 0Z" fill="#ffffff" stroke-linecap="round" stroke-linejoin="miter"></path></svg>